<?xml version="1.0" encoding="utf-8"?>
<!-- Generator: Adobe Illustrator 25.4.1, SVG Export Plug-In . SVG Version: 6.00 Build 0)  -->
<svg version="1.1"
	 id="svg911" inkscape:export-filename="/home/adam/Projects/sanic/assets/final/sanic-framework-logo-circle-128x128.png" inkscape:export-xdpi="31.65" inkscape:export-ydpi="31.65" inkscape:version="0.92.2 (5c3e80d, 2017-08-06)" sodipodi:docname="sanic-framework-logo-circle.svg" xmlns:cc="http://creativecommons.org/ns#" xmlns:dc="http://purl.org/dc/elements/1.1/" xmlns:inkscape="http://www.inkscape.org/namespaces/inkscape" xmlns:rdf="http://www.w3.org/1999/02/22-rdf-syntax-ns#" xmlns:sodipodi="http://sodipodi.sourceforge.net/DTD/sodipodi-0.dtd" xmlns:svg="http://www.w3.org/2000/svg"
	 xmlns="http://www.w3.org/2000/svg" xmlns:xlink="http://www.w3.org/1999/xlink" x="0px" y="0px" viewBox="0 0 291.2 291.2"
	 style="enable-background:new 0 0 291.2 291.2;" xml:space="preserve">
<style type="text/css">
	.st0{opacity:0.99;enable-background:new    ;}
</style>
<sodipodi:namedview  bordercolor="#666666" borderopacity="1.0" fit-margin-bottom="5" fit-margin-left="5" fit-margin-right="5" fit-margin-top="5" id="base" inkscape:current-layer="layer1" inkscape:cx="81.669669" inkscape:cy="175.33542" inkscape:document-units="mm" inkscape:pageopacity="0.0" inkscape:pageshadow="2" inkscape:window-height="1886" inkscape:window-maximized="1" inkscape:window-width="1080" inkscape:window-x="5560" inkscape:window-y="117" inkscape:zoom="1.8275081" pagecolor="#ffffff" showgrid="false">
	</sodipodi:namedview>
<path class="st0" d="M145.6,14.2C73,14.2,14.2,73,14.2,145.6S73,277,145.6,277S277,218.2,277,145.6S218.2,14.2,145.6,14.2z
	 M137.9,87.3c6.4-0.1,7.6-0.4,15.1-0.4c8.3,0,8.3,0.7,16.5,0.7c6,0,8.4-0.3,12.2-0.4l0,0c0.7,0,1.5,0,2.4,0.2
	c0.9,0.2,1.8,0.5,2.6,1.2c0.8,0.7,1.4,1.6,1.9,2.5c0.5,1,0.8,2,1,3.2c0.1,1.2,0,2.4-0.3,3.6c-0.3,1.1-0.8,2.2-1.5,3.1
	c-0.7,0.9-1.5,1.7-2.5,2.3c-0.4,0.2-0.9,0.3-1.3,0.4h0c-1.1,0.1-2.8,0.2-4.2,0.3c-2.7,0-5.2-0.1-10.3-0.1c-8.3,0-8.3,0.6-16.5,0.6
	h-16.5c-0.1,0-0.1,0-0.2,0c-2-0.1-3,0.1-4.5-0.5c-1-0.6-1.8-1.4-2.4-2.3c-0.6-0.9-1-2-1.1-3.2C128,91.1,129.6,87.4,137.9,87.3z
	 M74.6,104.1c2.8-5.1,7.7-8.5,12.8-11.3c4.9-3,10.1-5.1,16.2-5.1c4,0,4.9-0.3,8-0.4l0,0c2.8,0.2,3.3,0.2,4.8,1.4
	c1.6,1.6,2.9,3.5,3.3,5.9c0.1,1.3,0,2.5-0.3,3.7c-0.4,1.2-0.9,2.3-1.7,3.2c-3.9,3.4-7.3,2-14.1,2c-4.6,0-8.3,2.8-11.4,5.8
	c-3,3.1-5.1,6.8-5.1,11.4c0,4.6,1.3,9.1,4.3,12.2c3.1,3,7.6,5.1,12.2,5.1c8.2,0,8.2-1.2,16.5-1.2c8.2,0,8.2-0.2,16.4-0.2
	c8.3,0,8.3,1.5,16.5,1.5c2.7,0,5.6-1.1,7.9,0.9c0.9,0.7,1.6,1.6,2.2,2.6c0.6,1,0.9,2.1,1.1,3.3c0.1,1.3,0,2.5-0.3,3.7
	c-1.6,4.9-1.7,6-10.9,6.1c-8.2,0-8.2-1.6-16.5-1.6c-8.2,0-8.2,1.3-16.4,1.3c-8.3,0-8.3-1.3-16.5-1.3c-6.1,0-11.4-1.2-16.4-4
	c-5.1-3-9.8-6.5-12.8-11.6c-2.8-4.9-3.7-10.9-3.7-16.8C70.8,114.8,71.8,109,74.6,104.1z M110.2,197.8c-0.4,1.2-0.9,2.3-1.7,3.2
	c-0.8,1-1.7,1.8-2.8,2.3l0,0c-2.2,1-6.3,0.6-9.7,0.7c-8,0-8.5-0.4-16.6-0.4c-4.6,0-8.6-3.8-8.5-8.6c0.1-4.5,4.3-8.2,8.8-8.2
	c7.9,0,8.3-0.4,16.2-0.4c7.6,0.2,9.1-0.3,11.4,1.6c0.9,0.7,1.6,1.6,2.2,2.6c0.6,1,0.9,2.1,1.1,3.3
	C110.7,195.3,110.5,196.6,110.2,197.8z M214.4,187.4c-3,5.1-7.1,8.8-12.2,11.8c-4.9,2.8-10.3,4.5-16.2,4.5c-8.3,0-8.3,0.7-16.5,0.7
	c-8.3,0-8.3-0.3-16.5-0.3c-8.2,0-8.2,0.4-16.5,0.4c-9.6-0.3-16.5,1.5-17.5-6.8c-0.1-1.3,0-2.6,0.5-3.8c0.4-1.2,1.1-2.4,1.9-3.4
	c0.8-1,1.8-1.9,3-2.5c3.8-1.6,7.8-1,12.2-1c8.3,0,8.3,0.7,16.5,0.7c8.3,0,8.3,0.3,16.5,0.3c8.2,0,8.2,0.4,16.5,0.4
	c4.6,0,9.4-2.1,12.3-5.1c3-3.1,4-7.7,4-12.5c0-4.6-2.1-8.2-5.2-11.2c-3-3.1-6.5-5.5-11.2-5.5c-6,0.2-10,0.8-12.2-2.2
	c-0.6-0.9-1-2-1.1-3.2c-0.1-1.3,0-2.6,0.5-3.8c0.4-1.2,1.1-2.4,1.9-3.4c0.8-1,1.8-1.9,3-2.5l0,0c2-1,4.4-0.6,8-0.6
	c5.9,0,12,0.2,17,3c5.1,2.8,8.2,8.3,11,13.4c2.8,4.8,6.1,10.1,6.1,16.1C220.1,177,217.3,182.5,214.4,187.4z M212.6,103.7
	c-5.3,0-4.3,0.1-6.1,0.1l0,0c-3.5,0.1-6.5,0.1-8.3-2.9c-0.5-0.9-0.9-1.9-1-3c-0.1-1.2,0-2.5,0.4-3.7c0.4-1.2,0.8-2.3,1.5-3.6
	c1.5-2.4,2.8-3.1,5.3-3.5c1.5-0.4,5.5-0.5,8.4-0.3c4.8,0,7.9,4.6,7.7,9.4C220.3,100.6,217,103.7,212.6,103.7z"/>
</svg>
